<?xml version="1.0" encoding="utf-8"?>
<!-- Generator: Adobe Illustrator 26.0.1, SVG Export Plug-In . SVG Version: 6.00 Build 0)  -->
<svg version="1.1" id="Layer_1" xmlns="http://www.w3.org/2000/svg" xmlns:xlink="http://www.w3.org/1999/xlink" x="0px" y="0px"
	 viewBox="0 0 451 146" style="enable-background:new 0 0 451 146;" xml:space="preserve">
<style type="text/css">
	.st0{fill:#B3B3B3;}
	.st1{fill:#333333;}
	.st2{fill:#FFFFA8;}
</style>
<path class="st0" d="M342.6,91.7c0-9.2,2.3-20.2,6.8-28.8c4.5-8.6,11-13.2,19.3-17.8c8.3-4.5,17.6-6.8,27.9-6.8
	c15.9,0,28.9,5.2,39,15.5c10.1,10.3,15.2,23.3,15.2,39.1c0,15.9-5.1,27-15.4,37.5c-10.2,10.4-23.1,15.7-38.7,15.7
	c-9.6,0-18.8-2.2-27.5-6.5c-8.7-4.3-15.4-10.7-19.9-19.1C344.8,112,342.6,103.7,342.6,91.7z M371,93.2c0,10.4,2.5,16.4,7.4,21.9
	c4.9,5.5,11,8.3,18.3,8.3c7.2,0,13.3-2.8,18.2-8.3c4.9-5.5,7.4-11.6,7.4-22.1c0-10.3-2.5-18.2-7.4-23.7c-4.9-5.5-11-8.3-18.2-8.3
	c-7.2,0-13.3,2.8-18.3,8.3C373.5,74.8,371,82.7,371,93.2z"/>
<path class="st1" d="M203.1,0.7H261c11.5,0,20,0.5,25.6,1.4c5.6,1,10.7,2.9,15.1,6c4.4,3,8.2,7.1,11.1,12.1c3,5,4.4,10.7,4.4,17
	c0,6.8-1.8,13-5.5,18.7c-3.7,5.7-8.6,9.9-14.9,12.8c8.8,2.6,15.6,7,20.4,13.1c4.7,6.2,7.1,13.5,7.1,21.8c0,6.6-1.5,13-4.6,19.2
	c-3.1,6.2-7.2,11.2-12.6,14.9c-5.3,3.7-11.8,6-19.6,6.9c-4.9,0.5-16.6,0.9-35.3,1h-23.8c-14.1,0-25.5-11.4-25.5-25.5V0.7z
	 M232.4,32.8v25.5h19.2c11.4,0,18.5-0.2,21.3-0.5c5-0.6,8.9-2.3,11.8-5.2s4.3-6.6,4.3-11.3c0-4.5-1.2-8.1-3.7-10.9
	c-2.5-2.8-6.1-4.5-11-5.1c-2.9-0.3-11.2-0.5-25-0.5h-8.8C235.9,24.9,232.4,28.4,232.4,32.8z M232.4,82.5v27.8
	c0,6,4.9,10.9,10.9,10.9h16.2c10.5,0,17.2-0.3,20.1-0.9c4.3-0.8,7.9-2.7,10.6-5.8c2.7-3.1,4.1-7.2,4.1-12.3c0-4.3-1.1-8-3.2-11.1
	c-2.1-3-5.2-5.2-9.1-6.6c-4-1.4-12.6-2.1-25.9-2.1H232.4z"/>
<path class="st0" d="M146.6,13.6L146.6,13.6c0-7.1,5.8-12.8,12.8-12.8h2.1c7.1,0,12.8,5.8,12.8,12.8v0c0,7.1-5.8,12.8-12.8,12.8
	h-2.1C152.3,26.4,146.6,20.7,146.6,13.6z M146.6,145.6v-105h27.8v92.1c0,7.1-5.8,12.8-12.8,12.8H146.6z"/>
<path class="st2" d="M0.7,0.7h57.9c11.5,0,20,0.5,25.6,1.4c5.6,1,10.7,2.9,15.1,6c4.4,3,8.2,7.1,11.1,12.1c3,5,4.4,10.7,4.4,17
	c0,6.8-1.8,13-5.5,18.7c-3.7,5.7-8.6,9.9-14.9,12.8c8.8,2.6,15.6,7,20.4,13.1c4.7,6.2,7.1,13.5,7.1,21.8c0,6.6-1.5,13-4.6,19.2
	c-3.1,6.2-7.2,11.2-12.6,14.9c-5.3,3.7-11.8,6-19.6,6.9c-4.9,0.5-16.6,0.9-35.3,1H27.1c-14.6,0-26.4-11.8-26.4-26.4V0.7z M29.9,34.3
	v24h19.2c11.4,0,18.5-0.2,21.2-0.5c5-0.6,8.9-2.3,11.8-5.2s4.3-6.6,4.3-11.3c0-4.5-1.2-8.1-3.7-10.9c-2.5-2.8-6.1-4.5-11-5.1
	c-2.9-0.3-11.2-0.5-25-0.5h-7.3C34.2,24.9,29.9,29.1,29.9,34.3z M29.9,82.5v30.9c0,4.3,3.5,7.8,7.8,7.8H57c10.5,0,17.2-0.3,20.1-0.9
	c4.3-0.8,7.9-2.7,10.6-5.8c2.7-3.1,4.1-7.2,4.1-12.3c0-4.3-1.1-8-3.2-11.1c-2.1-3-5.2-5.2-9.1-6.6c-4-1.4-12.6-2.1-25.9-2.1H29.9z"
	/>
</svg>
