<?xml version="1.0" encoding="utf-8"?>
<!-- Generator: Adobe Illustrator 26.0.1, SVG Export Plug-In . SVG Version: 6.00 Build 0)  -->
<svg version="1.1" id="Layer_1" xmlns="http://www.w3.org/2000/svg" xmlns:xlink="http://www.w3.org/1999/xlink" x="0px" y="0px"
	 viewBox="0 0 512 512" style="enable-background:new 0 0 512 512;" xml:space="preserve">
<g>
	<path d="M374.1,479H137.5c-19.5,0-36.6-13.1-41.6-32v0L34.2,215.2L45.1,201l9-0.1h421.9l-60,245.2C411.2,465.5,394,479,374.1,479z
		 M130.7,437.8c0.8,3.1,3.6,5.2,6.8,5.2h236.6c3.2,0,6-2.2,6.8-5.3L430,237H77.3L130.7,437.8z"/>
</g>
<path d="M487.7,242.1H24.3c-12.1,0-21.9-9.2-21.9-20.6v0c0-11.4,9.8-20.6,21.9-20.6h463.4c12.1,0,21.9,9.2,21.9,20.6v0
	C509.6,232.9,499.8,242.1,487.7,242.1z"/>
<path d="M178.8,396.6L178.8,396.6c-10.7,0-19.3-8.6-19.3-19.3v-69.5c0-10.7,8.6-19.3,19.3-19.3h0c10.7,0,19.3,8.6,19.3,19.3v69.5
	C198.1,388,189.4,396.6,178.8,396.6z"/>
<path d="M98.2,225.7l-4.4-2.2l61.9-125.2c4.1-8.3,14.2-11.7,22.5-7.6l4.4,2.2c8.3,4.1,11.7,14.2,7.6,22.5l-47,95
	C135,227.1,114.8,233.9,98.2,225.7z"/>
<path d="M408.9,225.2l3.4-1.7l-70-141.6C338,73.2,327.6,69.7,319,74l-3.4,1.7c-8.6,4.3-12.1,14.7-7.9,23.3l54.6,110.4
	C370.8,226.6,391.7,233.7,408.9,225.2z"/>
<path d="M256,396.6L256,396.6c-10.7,0-19.3-8.6-19.3-19.3v-69.5c0-10.7,8.6-19.3,19.3-19.3h0c10.7,0,19.3,8.6,19.3,19.3v69.5
	C275.3,388,266.7,396.6,256,396.6z"/>
<path d="M333.2,396.6L333.2,396.6c-10.7,0-19.3-8.6-19.3-19.3v-69.5c0-10.7,8.6-19.3,19.3-19.3h0c10.7,0,19.3,8.6,19.3,19.3v69.5
	C352.5,388,343.9,396.6,333.2,396.6z"/>
</svg>
