<?xml version="1.0" encoding="utf-8"?>
<!-- Generator: Adobe Illustrator 26.0.1, SVG Export Plug-In . SVG Version: 6.00 Build 0)  -->
<svg version="1.1" id="Layer_1" xmlns="http://www.w3.org/2000/svg" xmlns:xlink="http://www.w3.org/1999/xlink" x="0px" y="0px"
	 viewBox="0 0 111 104" style="enable-background:new 0 0 111 104;" xml:space="preserve">
<style type="text/css">
	.st0{fill:#C9EAFF;}
	.st1{fill:#B4D4FF;}
	.st2{fill:#1C1401;}
	.st3{fill:#FDF300;}
	.st4{clip-path:url(#SVGID_00000107573071752489130990000014534206554597157551_);fill:#1C1401;}
	.st5{fill:#FFFFFF;}
</style>
<ellipse transform="matrix(0.866 -0.5 0.5 0.866 -12.9056 19.9819)" class="st0" cx="30.8" cy="34.1" rx="10.2" ry="28.2"/>
<ellipse transform="matrix(0.745 -0.6671 0.6671 0.745 -22.3589 33.9825)" class="st1" cx="33.3" cy="46.2" rx="1.5" ry="12.6"/>
<ellipse transform="matrix(0.904 -0.4275 0.4275 0.904 -15.8766 19.8144)" class="st1" cx="36.2" cy="45.3" rx="1.5" ry="12.6"/>
<ellipse transform="matrix(0.9855 -0.17 0.17 0.9855 -7.1234 7.3042)" class="st1" cx="39.1" cy="45.3" rx="1.5" ry="12.6"/>
<ellipse transform="matrix(0.9998 -2.131265e-02 2.131265e-02 0.9998 -0.6095 1.2236)" class="st0" cx="57.1" cy="29.2" rx="10.2" ry="28.2"/>
<ellipse transform="matrix(0.9319 -0.3627 0.3627 0.9319 -9.8721 22.2554)" class="st1" cx="54.3" cy="37.4" rx="1.5" ry="12.6"/>
<ellipse transform="matrix(0.9966 -8.255819e-02 8.255819e-02 0.9966 -2.9025 4.8672)" class="st1" cx="57.4" cy="37.5" rx="1.5" ry="12.6"/>
<ellipse transform="matrix(0.1872 -0.9823 0.9823 0.1872 11.0027 90.411)" class="st1" cx="60.1" cy="38.6" rx="12.6" ry="1.5"/>
<g>
	<g>
		<path class="st2" d="M94.4,44c3-2.8,4.1-7,4.9-10.8c0.8-3.8,1.3-8.4-0.3-12c-1.6-3.5-5.2-4.4-8.5-2.5c-2.7,1.6-5.4,5.1-5.2,8.4
			c0.1,1.6,1.4,3.3,3.2,2.9c1.9-0.4,2.4-2.8,2.5-4.4c0.1-1.3-1.9-1.3-2,0c0,0.6-0.2,2.4-1,2.5c-1,0.1-0.7-1.7-0.6-2.2
			c0.4-1.5,1.2-2.8,2.2-3.9c1.1-1.1,2.7-2.3,4.4-2.3c1.7,0.1,2.9,1.6,3.4,3.1c1.1,3.3,0.5,7.3-0.2,10.6c-0.7,3.3-1.6,6.9-4.2,9.3
			C92.1,43.4,93.5,44.8,94.4,44L94.4,44z"/>
	</g>
</g>
<g>
	<g>
		<path class="st2" d="M83,41.7c1,0.1,1.9-0.4,2.5-1.2c0.6-0.9,0.8-1.9,0.6-3c-0.3-2.3-1.4-4.5-2.4-6.5c-0.9-1.9-2-4.2-4-5.2
			c-1.8-1-4.3-0.6-5.1,1.5c-0.9,2.3,1.2,4.5,3.5,4.4c1.3-0.1,1.3-2.1,0-2c-0.7,0-1.4-0.2-1.7-0.9c-0.2-0.6,0.1-1.2,0.8-1.4
			c1.8-0.5,3.1,1.9,3.8,3.1c1,1.7,1.8,3.4,2.4,5.2c0.3,0.9,1.6,4.3-0.5,4.1c-0.5-0.1-1,0.5-1,1C82,41.3,82.4,41.7,83,41.7L83,41.7z"
			/>
	</g>
</g>
<ellipse transform="matrix(0.9699 -0.2435 0.2435 0.9699 -15.2411 17.4873)" class="st3" cx="63.1" cy="70.4" rx="47.4" ry="31.1"/>
<path class="st2" d="M16.5,77.9L1.2,88.3l18.7,0.2C19.9,88.5,16.1,79.8,16.5,77.9z"/>
<g>
	<defs>
		
			<ellipse id="SVGID_1_" transform="matrix(0.9699 -0.2435 0.2435 0.9699 -15.2411 17.4873)" cx="63.1" cy="70.4" rx="47.4" ry="31.1"/>
	</defs>
	<clipPath id="SVGID_00000013884298982329595050000010255720198397188013_">
		<use xlink:href="#SVGID_1_"  style="overflow:visible;"/>
	</clipPath>
	<path style="clip-path:url(#SVGID_00000013884298982329595050000010255720198397188013_);fill:#1C1401;" d="M56.6,34.2
		c0,0-13,38.9,20.2,68.5s0,0,0,0l-0.2,0.9l11.4-6.3c0,0-31.2-51.1-22.4-63.1L56.6,34.2z"/>
	<path style="clip-path:url(#SVGID_00000013884298982329595050000010255720198397188013_);fill:#1C1401;" d="M35,40
		c0,0-14.8,38.3,16.9,69.4s0,0,0,0l-0.3,0.9l11.7-5.8c0,0-28.7-52.5-19.5-64L35,40z"/>
</g>
<circle class="st2" cx="92.5" cy="57.9" r="8.3"/>
<circle class="st5" cx="94.5" cy="55.9" r="3.9"/>
<g>
	<path class="st2" d="M104.3,76.3c-1.9-0.7-2.9-1.7-3.4-2.5c-0.4-0.5-0.9-1.4-1.1-1.3c-0.1,0.1-0.2,0.4-0.1,0.6c0.1,0.4,0.4,1,1,1.6
		c0.6,0.6,1.3,0.9,1.8,1.1C102.8,76,103.4,76.2,104.3,76.3z"/>
	<g>
		<path class="st2" d="M104.5,75.3C104.5,75.3,104.2,75.2,104.5,75.3c-0.1-0.1-0.2-0.1-0.2-0.1c-0.1-0.1-0.2-0.1-0.4-0.2
			c-0.2-0.1-0.5-0.3-0.7-0.4c-0.2-0.1-0.4-0.2-0.5-0.4c-0.1-0.1,0.2,0.2,0,0c0,0-0.1-0.1-0.1-0.1c-0.1-0.1-0.2-0.1-0.2-0.2
			c-0.1-0.1-0.3-0.2-0.4-0.4c-0.1-0.1-0.1-0.1-0.2-0.2c0,0,0,0-0.1-0.1c-0.2-0.2,0.1,0.2,0,0c-0.2-0.3-0.4-0.7-0.7-1
			c-0.4-0.5-0.9-1.1-1.6-0.9c-0.4,0.1-0.7,0.5-0.8,0.9c-0.1,0.3-0.1,0.8,0,1.1c0.4,1.1,1.2,2.1,2.3,2.7c1,0.6,2.2,0.9,3.4,1
			c0.5,0.1,1-0.5,1-1c0-0.6-0.4-0.9-1-1c0,0-0.3,0-0.1,0c0.1,0,0,0-0.1,0c-0.1,0-0.2,0-0.4-0.1c-0.2,0-0.4-0.1-0.6-0.2
			c-0.2,0-0.3-0.1-0.5-0.2c-0.1,0-0.1-0.1-0.2-0.1c-0.2-0.1,0,0,0.1,0c-0.1,0-0.1-0.1-0.2-0.1c-0.2-0.1-0.4-0.2-0.5-0.3
			c-0.1,0-0.1-0.1-0.2-0.1c0,0-0.1-0.1,0,0c-0.1-0.1-0.2-0.2-0.3-0.3c-0.1-0.1-0.2-0.2-0.2-0.3c-0.1-0.1,0,0,0,0
			c0-0.1-0.1-0.1-0.1-0.2c-0.1-0.2-0.2-0.4-0.3-0.6c0,0,0-0.1,0-0.1c0.1,0.2,0.1,0.2,0,0.1c0,0,0-0.1,0-0.1c0.1,0.1,0,0.3,0,0
			c0-0.1,0-0.2,0,0c0,0,0,0,0,0.1c0-0.1,0-0.1-0.1,0.1c-0.2,0.1-0.3,0.1-0.5,0.2c-0.2,0.2-0.4,0.3-0.7,0.1c0.1,0.1-0.2-0.2-0.1-0.1
			c0,0,0.1,0.1,0.1,0.1c0,0,0,0.1,0.1,0.1c-0.1-0.1-0.1-0.1,0-0.1c0.1,0.2,0.2,0.3,0.4,0.5c0.4,0.6,0.8,1.1,1.3,1.6
			c0.9,0.7,1.8,1.2,2.9,1.7c0.5,0.2,1.1-0.2,1.2-0.7C105.4,76,105,75.5,104.5,75.3z"/>
	</g>
</g>
</svg>
