<?xml version="1.0" encoding="utf-8"?>
<!-- Generator: Adobe Illustrator 26.0.1, SVG Export Plug-In . SVG Version: 6.00 Build 0)  -->
<svg version="1.1" id="Layer_1" xmlns="http://www.w3.org/2000/svg" xmlns:xlink="http://www.w3.org/1999/xlink" x="0px" y="0px"
	 viewBox="0 0 50 50" style="enable-background:new 0 0 50 50;" xml:space="preserve">
<style type="text/css">
	.st0{fill:#B3B3B3;}
</style>
<g>
	<path class="st0" d="M19.9,4.2c8.7,0,15.7,7,15.7,15.7c0,8.7-7,15.7-15.7,15.7c-8.7,0-15.7-7-15.7-15.7C4.2,11.3,11.3,4.2,19.9,4.2
		 M19.9,0.2C9.1,0.2,0.2,9.1,0.2,19.9s8.8,19.7,19.7,19.7s19.7-8.8,19.7-19.7S30.8,0.2,19.9,0.2L19.9,0.2z"/>
</g>
<g>
	<path class="st0" d="M34.8,31.2l-3.6,3.6l11.4,11.4c0.5,0.5,1.1,0.7,1.8,0.7s1.3-0.2,1.8-0.7l0,0c1-1,1-2.6,0-3.6L34.8,31.2
		L34.8,31.2z"/>
</g>
</svg>
