<?xml version="1.0" encoding="utf-8"?>
<!-- Generator: Adobe Illustrator 26.0.1, SVG Export Plug-In . SVG Version: 6.00 Build 0)  -->
<svg version="1.1" id="Layer_1" xmlns="http://www.w3.org/2000/svg" xmlns:xlink="http://www.w3.org/1999/xlink" x="0px" y="0px"
	 viewBox="0 0 60 50" style="enable-background:new 0 0 60 50;" xml:space="preserve">
<g>
	<path d="M26,27.5L26,27.5c-1.2,1.2-3.1,1.2-4.2,0L4,9.8C2.9,8.6,2.9,6.7,4,5.5l0,0c1.2-1.2,3.1-1.2,4.2,0L26,23.2
		C27.1,24.4,27.1,26.3,26,27.5z"/>
</g>
<g>
	<path d="M26,23.5L26,23.5c1.2,1.2,1.2,3.1,0,4.2L8.3,45.5c-1.2,1.2-3.1,1.2-4.2,0l0,0c-1.2-1.2-1.2-3.1,0-4.2l17.7-17.7
		C22.9,22.4,24.8,22.4,26,23.5z"/>
</g>
<g>
	<path d="M40,27.5L40,27.5c-1.2,1.2-3.1,1.2-4.2,0L18,9.8c-1.2-1.2-1.2-3.1,0-4.2l0,0c1.2-1.2,3.1-1.2,4.2,0L40,23.2
		C41.1,24.4,41.1,26.3,40,27.5z"/>
</g>
<g>
	<path d="M40,23.5L40,23.5c1.2,1.2,1.2,3.1,0,4.2L22.3,45.5c-1.2,1.2-3.1,1.2-4.2,0l0,0c-1.2-1.2-1.2-3.1,0-4.2l17.7-17.7
		C36.9,22.4,38.8,22.4,40,23.5z"/>
</g>
<g>
	<path d="M56,27.5L56,27.5c-1.2,1.2-3.1,1.2-4.2,0L34,9.8c-1.2-1.2-1.2-3.1,0-4.2l0,0c1.2-1.2,3.1-1.2,4.2,0L56,23.2
		C57.1,24.4,57.1,26.3,56,27.5z"/>
</g>
<g>
	<path d="M56,23.5L56,23.5c1.2,1.2,1.2,3.1,0,4.2L38.3,45.5c-1.2,1.2-3.1,1.2-4.2,0l0,0c-1.2-1.2-1.2-3.1,0-4.2l17.7-17.7
		C52.9,22.4,54.8,22.4,56,23.5z"/>
</g>
</svg>
